<svg xmlns="http://www.w3.org/2000/svg" xmlns:xlink="http://www.w3.org/1999/xlink" xml:space="preserve" version="1.1" style="shape-rendering:geometricPrecision; text-rendering:geometricPrecision; image-rendering:optimizeQuality; fill-rule:evenodd; clip-rule:evenodd" viewBox="189.23 69 999.77 560">
 <defs>
  <style type="text/css">
   <![CDATA[
    .fil0 {fill:#1471EA}
   ]]>
  </style>
 </defs>
 <g id="Layer_x0020_1">
  <metadata id="CorelCorpID_0Corel-Layer"/>
  <path class="fil0" d="M1057 429l-67 0 6 -68 66 0 -5 68zm-530 -57c0,25 -16,39 -40,39 -87,-1 -189,-3 -274,1 -30,2 -33,51 -1,51l149 0 -9 100c-1,23 -7,45 8,57 6,5 14,9 25,9l722 0c15,0 26,-8 32,-17 10,-13 7,-19 10,-39 5,-40 7,-99 12,-138 0,-6 1,-16 2,-23 1,-8 2,-17 2,-24 0,-25 5,-50 6,-68 0,-10 1,-15 1,-24l-863 0c-13,0 -23,9 -25,18 -4,13 3,25 12,27 18,6 192,-5 213,4 9,5 18,14 18,27z"/>
  <path class="fil0" d="M386 184l792 0c6,0 5,-6 6,-17l5 -67c0,-17 -16,-31 -33,-31l-722 0c-23,0 -38,16 -41,39l-7 76z"/>
  <path class="fil0" d="M216 184l103 0c8,0 14,-4 18,-7 16,-14 8,-40 -9,-40l-113 0c-24,2 -32,47 1,47z"/>
 </g>
</svg>