<?xml version="1.0" encoding="UTF-8"?>
<svg viewBox="0 -.03 1024 768.03" xmlns="http://www.w3.org/2000/svg">
	<style>
		.clr-1{fill:#054101;}
		.clr-2{fill:#067301;}
		.clr-3{fill:#05a502;}
	</style>
	<path class="clr-3" d="m254.54 767.99c-241.59 0.07304-242.41 0.02537-243.24-6e-5a14.351 14.35 0 0 1-8.1382-4.6134c-3.4629-3.7467-4.232-10.273-1.5728-14.725 61.319-85.021 62.067-85.464 61.658-86.118-0.36469-0.58361-1.1029-0.30027-1.673-0.30415l-10.129-0.02752c-4.2589-0.09956-8.5242 0.32784-12.777-0.42573-10.344-1.833-13.975-12.522-9.1328-20.499l11.099-16.551c44.736-67.185 45.59-67.777 45.124-68.529-0.42806-0.69117-1.3828-0.35276-2.1042-0.35575-5.1794-0.02153-10.36 0.03582-15.538-0.0233-6.936-0.07917-11.698-3.6056-13.7-10.177a10.929 10.928 0 0 1 1.1093-9.1069l66.578-107.85c5.2267-8.3773 16.427-8.3795 21.635-0.00185l64.374 103.93c1.7732 2.8655 3.651 5.7136 3.7443 9.2582 0.20574 7.8278-5.6924 13.791-13.903 13.943l-15.763 0.03145c-0.72193 3e-3 -1.6765-0.33464-2.1057 0.35369-0.46853 0.75139 0.38452 1.3446 0.77793 1.9375l55.217 82.76c2.8065 4.2819 3.2521 10.681-0.02923 15.371-3.0878 4.414-7.5266 5.7434-12.428 5.9019-6.3708 0.20595-12.754 0.04212-19.131 0.06356-0.64217 0.00217-1.5322-0.342-1.8778 0.3117-0.40759 0.77079 0.4657 1.3548 0.86526 1.9016l61.26 84.964c1.8094 3.0362 1.5454 10.481-1.6843 13.651-2.4861 2.4402-5.129 4.2314-8.5175 4.9313l0.00102 7.9e-4 -3e-5 1e-5z"/>
	<path class="clr-3" d="m1012.7 767.99c-241.59 0.07304-242.41 0.02537-243.24-6e-5a14.351 14.35 0 0 1-8.1382-4.6134c-3.4629-3.7467-4.232-10.273-1.5728-14.725 61.319-85.021 62.067-85.464 61.658-86.118-0.36469-0.58361-1.1029-0.30027-1.673-0.30415l-10.129-0.02752c-4.2589-0.09956-8.5242 0.32784-12.777-0.42573-10.344-1.833-13.975-12.522-9.1328-20.499l11.099-16.551c44.736-67.185 45.59-67.777 45.124-68.529-0.42806-0.69117-1.3828-0.35276-2.1042-0.35575-5.1794-0.02153-10.36 0.03582-15.538-0.0233-6.936-0.07917-11.698-3.6056-13.7-10.177a10.929 10.928 0 0 1 1.1093-9.1069l66.578-107.85c5.2267-8.3773 16.427-8.3795 21.635-0.00185l64.374 103.93c1.7732 2.8655 3.651 5.7136 3.7443 9.2582 0.20574 7.8278-5.6924 13.791-13.903 13.943l-15.763 0.03145c-0.72193 3e-3 -1.6765-0.33464-2.1057 0.35369-0.46853 0.75139 0.38452 1.3446 0.77793 1.9375l55.217 82.76c2.8065 4.2819 3.2521 10.681-0.02923 15.371-3.0878 4.414-7.5266 5.7434-12.428 5.9019-6.3708 0.20595-12.754 0.04212-19.131 0.06356-0.64217 0.00217-1.5322-0.342-1.8778 0.3117-0.40759 0.77079 0.4657 1.3548 0.86526 1.9016l61.26 84.964c1.8094 3.0362 1.5454 10.481-1.6843 13.651-2.4861 2.4402-5.129 4.2314-8.5175 4.9313l0.00102 7.9e-4 -3e-5 1e-5z"/>
	<path class="clr-2" d="m462.59 767.97c-357.15 0.10797-358.37 0.0375-359.59-9e-5a21.216 21.215 0 0 1-12.031-6.8201c-5.1194-5.5388-6.2562-15.188-2.3251-21.769 90.649-125.69 91.756-126.34 91.151-127.31-0.53914-0.86278-1.6305-0.4439-2.4733-0.44963l-14.974-0.04067c-6.296-0.14719-12.602 0.48466-18.889-0.62938-15.292-2.7097-20.66-18.511-13.501-30.304l16.408-24.468c66.134-99.323 67.397-100.2 66.709-101.31-0.63281-1.0218-2.0442-0.52149-3.1108-0.52592-7.6569-0.03184-15.315 0.05295-22.971-0.03444-10.254-0.11704-17.294-5.3304-20.253-15.044a16.156 16.155 0 0 1 1.6398-13.463l98.425-159.44c7.7268-12.384 24.284-12.388 31.983-0.00274l95.167 153.64c2.6214 4.2361 5.3974 8.4467 5.5353 13.687 0.30417 11.572-8.4153 20.388-20.554 20.612l-23.304 0.04648c-1.0673 0.00443-2.4784-0.49471-3.113 0.52288-0.69265 1.1108 0.56846 1.9878 1.15 2.8643l81.63 122.35c4.1489 6.33 4.8078 15.79-0.0432 22.724-4.5648 6.5254-11.127 8.4906-18.372 8.725-9.4181 0.30447-18.854 0.06226-28.282 0.09396-0.94934 0.00321-2.2651-0.50559-2.7761 0.4608-0.60256 1.1395 0.68845 2.0029 1.2791 2.8111l90.562 125.61c2.675 4.4886 2.2847 15.495-2.4899 20.181-3.6752 3.6074-7.5823 6.2554-12.592 7.2902l0.0015 0.00117-1e-5 2e-5z"/>
	<path class="clr-2" d="m916.78 767.97c-357.15 0.10797-358.37 0.0375-359.59-9e-5a21.216 21.215 0 0 1-12.031-6.8201c-5.1194-5.5388-6.2562-15.188-2.3251-21.769 90.649-125.69 91.756-126.34 91.151-127.31-0.53914-0.86278-1.6305-0.4439-2.4733-0.44963l-14.974-0.04067c-6.296-0.14719-12.602 0.48466-18.889-0.62938-15.292-2.7097-20.66-18.511-13.501-30.304l16.408-24.468c66.134-99.323 67.397-100.2 66.709-101.31-0.63281-1.0218-2.0442-0.52149-3.1108-0.52592-7.6569-0.03184-15.315 0.05295-22.971-0.03444-10.254-0.11704-17.294-5.3304-20.253-15.044a16.156 16.155 0 0 1 1.6398-13.463l98.425-159.44c7.7268-12.384 24.284-12.388 31.983-0.00274l95.167 153.64c2.6214 4.2361 5.3974 8.4467 5.5353 13.687 0.30417 11.572-8.4153 20.388-20.554 20.612l-23.304 0.04648c-1.0673 0.00443-2.4784-0.49471-3.113 0.52288-0.69265 1.1108 0.56846 1.9878 1.15 2.8643l81.63 122.35c4.1489 6.33 4.8078 15.79-0.0432 22.724-4.5648 6.5254-11.127 8.4906-18.372 8.725-9.4181 0.30447-18.854 0.06226-28.282 0.09396-0.94934 0.00321-2.2651-0.50559-2.7761 0.4608-0.60256 1.1395 0.68845 2.0029 1.2791 2.8111l90.562 125.61c2.675 4.4886 2.2847 15.495-2.4899 20.181-3.6752 3.6074-7.5823 6.2554-12.592 7.2902l0.0015 0.00117-1e-5 2e-5z"/>
	<path class="clr-1" d="m782.23 767.94c-536.85 0.1623-538.67 0.05638-540.5-1.3e-4a31.89 31.888 0 0 1-18.084-10.251c-7.6951-8.3255-9.4039-22.829-3.4949-32.721 136.26-188.93 137.92-189.91 137.01-191.37-0.81038-1.2969-2.4509-0.66724-3.7177-0.67586l-22.507-0.06114c-9.4638-0.22125-18.942 0.7285-28.392-0.94603-22.987-4.073-31.055-27.825-20.294-45.55l24.663-36.778c99.408-149.29 101.31-150.61 100.27-152.28-0.95119-1.5359-3.0727-0.78387-4.6759-0.79053-11.509-0.04786-23.021 0.0796-34.528-0.05177-15.413-0.17592-25.995-8.0122-30.443-22.614a24.285 24.283 0 0 1 2.4649-20.237l147.95-239.66c11.614-18.615 36.503-18.62 48.075-0.00411l143.05 230.94c3.9403 6.3674 8.113 12.696 8.3202 20.573 0.4572 17.394-12.649 30.645-30.895 30.982l-35.028 0.06988c-1.6042 0.00667-3.7254-0.74361-4.6792 0.78596-1.0411 1.6697 0.85446 2.9879 1.7286 4.3054l122.7 183.9c6.2364 9.5148 7.2266 23.735-0.06494 34.157-6.8615 9.8085-16.725 12.762-27.616 13.115-14.157 0.45766-28.34 0.09359-42.512 0.14124-1.427 0.00482-3.4047-0.75996-4.1728 0.69264-0.90572 1.7128 1.0348 3.0106 1.9227 4.2255l136.13 188.8c4.0208 6.7468 3.4342 23.291-3.7426 30.335-5.5243 5.4225-11.397 9.4027-18.927 10.958l0.00225 0.00176z"/>
</svg>
