<svg id="Layer_1" data-name="Layer 1" xmlns="http://www.w3.org/2000/svg" viewBox="0 0 1024 765.92"><defs><style>.cls-1{fill:#067301;}.cls-2{fill:#054100;}.cls-3{fill:#06a501;}</style></defs><title>logo</title><path class="cls-1" d="M487.55,925H127.25c-2.47-.84-5.36-1.12-7.34-2.6C110,915,107,904,114.78,893.21c10.79-15.08,21.74-30.05,32.59-45.1,7.44-10.3,14.77-20.68,22.23-31,11.1-15.28,22.29-30.5,33.42-45.76.5-.68,1.25-1.68,1.06-2.26-.39-1.18-1.73-.63-2.65-.63-9.54,0-19.09.17-28.63-.09-6.79-.19-13.14-2.07-17.51-7.82-6-7.91-5.2-16.43-.07-24.38,4.26-6.59,8.66-13.1,13-19.62,10-15,20.16-29.89,30-45,2.7-4.14,6-8,7.82-12.66,1.57.57,1.9-.85,2.44-1.67q14.46-21.48,28.79-43c.54-.82,1.87-1.6,1.11-2.87s-2.14-1-3.34-1c-7.77,0-15.54,0-23.31,0-4.24,0-8.35-.65-12-3.09-7.42-4.93-12.35-15.7-4.8-27.74,20-31.88,39.71-64,59.53-96,12.18-19.67,24.67-39.15,36.43-59.06,7.54-12.77,26.55-12.71,33.92-.42,15.72,26.18,32.06,52,48.15,77.95q24,38.7,47.93,77.4c2.46,4,4.53,8.21,4,13.06-1.25,11.17-8.66,17.7-20.23,17.86-8.1.11-16.2,0-24.3,0-3.2,0-3.61.78-1.87,3.43,8.74,13.36,17.46,26.73,26.41,39.95,1.27,1.86,2,4.53,4.72,5.23a4.26,4.26,0,0,0,1.13,2.33c4.62,6.45,8.75,13.23,13.37,19.69,5.58,7.79,10.56,16,15.86,24,7.14,10.79,14.45,21.47,21.49,32.33,5.05,7.78,4.71,15.48-.7,22.8-4.53,6.15-11.09,8.13-18.3,8.26-9.32.16-18.65,0-28,.06-.83,0-1.95-.45-2.41.54s.38,1.65.87,2.35q4.22,6,8.44,11.91,18.75,26.33,37.49,52.64c6.22,8.72,12.49,17.41,18.72,26.12,7.65,10.69,15.22,21.44,22.95,32.07,4,5.46,4.52,17.4-.47,23.37C496.65,921.52,492.39,923.64,487.55,925Z" transform="translate(-29 -159.08)"/><path class="cls-1" d="M597.06,925H957.37c2.47-.84,5.35-1.12,7.34-2.6,9.91-7.41,12.87-18.36,5.12-29.19-10.79-15.08-21.74-30.05-32.59-45.1-7.43-10.3-14.76-20.68-22.23-31q-16.65-22.92-33.41-45.76c-.5-.68-1.25-1.68-1.06-2.26.38-1.18,1.72-.63,2.64-.63,9.55,0,19.1.17,28.63-.09,6.8-.19,13.14-2.07,17.51-7.82,6-7.91,5.21-16.43.08-24.38-4.26-6.59-8.66-13.1-13-19.62-10-15-20.15-29.89-30-45-2.69-4.14-5.95-8-7.81-12.66-1.57.57-1.9-.85-2.45-1.67q-14.45-21.48-28.79-43c-.54-.82-1.86-1.6-1.1-2.87s2.14-1,3.33-1c7.77,0,15.54,0,23.31,0,4.25,0,8.35-.65,12-3.09,7.42-4.93,12.36-15.7,4.8-27.74-20-31.88-39.7-64-59.52-96-12.18-19.67-24.67-39.15-36.43-59.06-7.54-12.77-26.55-12.71-33.92-.42-15.72,26.18-32.06,52-48.15,77.95q-24,38.7-47.93,77.4c-2.47,4-4.53,8.21-4,13.06,1.26,11.17,8.67,17.7,20.23,17.86,8.1.11,16.21,0,24.31,0,3.2,0,3.61.78,1.87,3.43-8.75,13.36-17.46,26.73-26.42,39.95-1.26,1.86-2,4.53-4.71,5.23a4.21,4.21,0,0,1-1.14,2.33c-4.61,6.45-8.74,13.23-13.37,19.69-5.58,7.79-10.55,16-15.85,24-7.15,10.79-14.46,21.47-21.5,32.33-5,7.78-4.7,15.48.7,22.8,4.53,6.15,11.09,8.13,18.31,8.26,9.32.16,18.64,0,28,.06.83,0,2-.45,2.41.54s-.37,1.65-.87,2.35q-4.2,6-8.44,11.91-18.74,26.33-37.49,52.64-9.33,13.08-18.72,26.12c-7.64,10.69-15.21,21.44-23,32.07-4,5.46-4.51,17.4.48,23.37C588,921.52,592.22,923.64,597.06,925Z" transform="translate(-29 -159.08)"/><path class="cls-2" d="M812,925H271c-3.71-1.25-8-1.68-11-3.9-14.88-11.13-19.32-27.57-7.69-43.83,16.2-22.65,32.64-45.13,48.93-67.71,11.16-15.48,22.17-31.06,33.38-46.49,16.67-23,33.46-45.8,50.17-68.71.75-1,1.88-2.53,1.59-3.4-.58-1.76-2.58-.94-4-.94-14.34-.06-28.68.25-43-.14-10.2-.28-19.72-3.1-26.29-11.74-9-11.88-7.81-24.67-.11-36.6,6.39-9.91,13-19.67,19.55-29.47,15-22.51,30.26-44.88,45-67.57,4-6.23,8.92-12,11.72-19,2.36.85,2.86-1.29,3.68-2.51q21.71-32.26,43.23-64.63c.81-1.22,2.8-2.4,1.65-4.31s-3.21-1.43-5-1.43c-11.66,0-23.33,0-35,0-6.38-.05-12.54-1-18.06-4.64-11.15-7.4-18.56-23.57-7.21-41.64,30.05-47.88,59.61-96.05,89.37-144.11,18.29-29.53,37.05-58.78,54.7-88.68,11.32-19.17,39.86-19.07,50.94-.63,23.6,39.31,48.13,78.07,72.29,117.05q36,58.09,72,116.21c3.7,6,6.8,12.33,6,19.61-1.88,16.77-13,26.57-30.38,26.81-12.16.17-24.33,0-36.49.08-4.8,0-5.42,1.16-2.81,5.15,13.13,20.06,26.22,40.14,39.66,60,1.9,2.8,3,6.81,7.09,7.86,0,1.43.91,2.4,1.7,3.5,6.93,9.69,13.13,19.86,20.07,29.56,8.38,11.7,15.85,24.06,23.81,36.07,10.73,16.19,21.71,32.23,32.27,48.53,7.58,11.7,7.07,23.25-1,34.25-6.81,9.23-16.66,12.21-27.49,12.39-14,.24-28,0-42,.09-1.24,0-2.93-.67-3.62.82-.63,1.33.56,2.47,1.31,3.53q6.32,9,12.67,17.87,28.14,39.54,56.29,79c9.34,13.1,18.75,26.14,28.11,39.22,11.48,16,22.84,32.19,34.46,48.15,6,8.19,6.78,26.13-.72,35.09C825.66,919.78,819.27,923,812,925Z" transform="translate(-29 -159.08)"/><path class="cls-3" d="M209.1,656c-5.76,8.88-11.46,17.8-17.3,26.62-8.77,13.26-17.64,26.45-26.48,39.68-2.57,3.85-5.09,7.74-7.73,11.56-4.77,6.87-7.73,14-3.53,22.27s11.35,11.73,20.33,11.8c8.82.08,17.65,0,26.47,0,1.24,0,2.94-.68,3.58.87.56,1.33-.61,2.47-1.37,3.53Q187.5,794,171.92,815.55q-25.08,34.65-50.18,69.27c-2.53,3.49-5,7-7.43,10.57-8,11.94,1.21,26.6,12.52,28.75.43.09.78.57,1.17.86H40c-5.79-1.54-9.26-5.4-11-11v-5c15.26-23.2,32.38-45.07,48.43-67.71,4.5-6.37,9.12-12.66,14.44-20-5.87,0-10.74,0-15.62,0a79.84,79.84,0,0,1-8.48-.18c-9.78-1.12-15-10.8-9.84-19.21,6.13-10.09,12.9-19.81,19.45-29.65q16.88-25.37,33.82-50.69c.63-.93,1.17-1.92,2.3-3.8-5.69,0-10.59-.06-15.48,0-6,.1-11.31-1.42-14.48-7s-1.17-10.76,2-15.87q31-49.57,61.69-99.28c6.88-11.11,17.91-11.27,24.89-.13C184.15,614.69,196,634,208,653.21Z" transform="translate(-29 -159.08)"/><path class="cls-3" d="M955,925c6.8-2.31,12.81-5.65,15.11-13,2-6.54,1.36-13-2.58-18.63-10.39-14.78-21.12-29.32-31.62-44q-21.54-30.15-43-60.4c-3.75-5.27-7.57-10.5-11.22-15.84-.89-1.29-2.79-2.64-2.07-4.21.78-1.73,3-.83,4.55-.84,8.66-.08,17.33.1,26-.08,8.25-.17,15.48-2.78,19.54-10.58,3.77-7.25,3.09-14.28-1.56-21.16-11.14-16.48-22.34-32.93-33-49.72-6.66-10.48-14.52-20.17-20.25-31.24l.36-1.49q18.19-29.26,36.38-58.53c6.61-10.6,17.72-10.68,24.3-.12q31.15,50,62.2,100.1c3.18,5.1,5.07,10.19,1.69,15.87s-8.68,6.77-14.64,6.68c-4.65-.07-9.3,0-14.05,0-.53,2.36,1.14,3.57,2.06,5q25.54,38.49,51.19,76.91c4.38,6.6,4.39,12,.23,16.95-2.91,3.44-6.75,4.68-11.11,4.71l-20,.14c-.14,0-.27.15-1.27.72L1053,907v9c-1.61,4.92-5.49,7.3-10,9Z" transform="translate(-29 -159.08)"/></svg>