<svg id="Logo" data-name="Logo" xmlns="http://www.w3.org/2000/svg" viewBox="0 0 1024 767.55001">
  <defs>
    <style>
      .cls-1{fill:#05a502;}
      .cls-2{fill:#054101;}
      .cls-3{fill:#067301;}
    </style>
  </defs>
  <title>LinkForest</title>
  <path class="cls-1" d="M127.96769,924.79871q-42.72561.06069-85.4512.12915C35.53529,924.94226,31.78748,920.64752,29,915v-6c12.80755-19.64258,27.2306-38.13232,40.836-57.20557,7.0434-9.874,14.196-19.6701,21.62114-29.9469-4.93558-1.13794-9.3741-.36767-13.751-.55847-2.82784-.12329-5.67151.08087-8.496-.07733-11.20177-.62732-16.79848-10.81238-10.7682-20.29181,8.85047-13.9126,18.15231-27.53857,27.29409-41.26526q13.01966-19.54934,26.09625-39.06085c.429-.64282.7457-1.36059,1.55952-2.86676-5.66443,0-10.58233-.05585-15.49844.01422-6.04028.08606-11.30749-1.50415-14.42482-7.09125-3.07286-5.5075-1.19413-10.49456,1.899-15.45324q30.94675-49.61151,61.72148-99.33032c7.06986-11.4123,18.04-11.59339,25.162-.148,12.31482,19.79065,24.49154,39.66724,36.72581,59.50739.44852,2.10956-1.09678,3.427-2.07689,4.89221-15.22012,22.75269-30.53386,45.44287-45.70829,68.22583-3.92652,5.89527-8.555,11.51178-9.173,19.05426-.86236,10.52466,9.3396,20.32849,21.69919,20.54846,8.99506.1601,17.99536.01117,26.99295.06244,1.2544.00714,2.9104-.64117,3.66777.74243.73036,1.33436-.493,2.48633-1.23131,3.537-6.387,9.0882-12.70967,18.22388-19.23526,27.212-11.78656,16.23431-23.70308,32.3742-35.55951,48.55774-10.18782,13.90606-20.48491,27.73431-30.48969,41.77087-3.70718,5.20117-7.398,10.50494-6.24137,17.71655C113.16946,917.19727,119.40229,922.00458,127.96769,924.79871Z" transform="translate(-29 -157.51831)"/>
  <path class="cls-1" d="M1053,915c-3.38562,8.05841-9.66278,10.18176-18.014,10.06372-26.9768-.38122-53.96136-.21826-80.94317-.26507a11.88413,11.88413,0,0,1,1.77191-.77955c11.79877-3.08734,18.79474-16.87249,12.3258-27.89428-2.03485-3.467-4.53186-6.52716-6.86474-9.74964-15.9444-22.02539-31.73957-44.15875-47.64746-66.21057-11.24823-15.59259-22.60913-31.10376-33.88324-46.67767-1.02765-1.41956-3.05866-2.92572-2.05664-4.70069.9823-1.74023,3.36316-.746,5.10424-.76428,8.49689-.08911,16.99732.07526,25.49238-.07745,8.60253-.15454,15.24121-3.71228,19.56292-11.48065,4.28528-7.70288,1.86115-14.72351-2.34338-21.09778-15.16327-22.98828-30.80182-45.66358-45.90753-68.68878-2.37616-3.622-6.25257-6.58692-6.5744-11.45124,12.68444-20.54119,25.214-41.18048,38.12524-61.57812,5.628-8.89148,17.11743-8.46216,22.70349.5235q29.68441,47.75005,59.24481,95.57733c1.57892,2.54773,3.29035,5.01807,4.77667,7.6178,5.28089,9.23645.38825,19.04632-10.28015,20.1568-4.94836.515-9.98724.13836-14.984.22876-1.08984.01971-2.31866-.40845-3.59869.96685,3.85974,5.8462,7.74646,11.78168,11.6817,17.68482q20.92914,31.39471,41.90039,62.76123c3.27149,4.88409,4.894,9.89276,1.76752,15.4184-2.98022,5.2669-7.867,6.77282-13.56781,6.70135-6.45282-.08093-12.90741-.01868-20.39307-.01868,20.7309,30.086,42.80249,58.109,62.6012,87.73389Z" transform="translate(-29 -157.51831)"/>
  <path class="cls-2" d="M811.00507,924.82764c-4.32593.0531-8.6518.1524-12.97773.15265q-260.7799.01675-521.55986.00958c-1.82794-.00006-3.65587-.1059-5.48384-.16236a31.86236,31.86236,0,0,1-18.06808-10.24328c-7.68822-8.31867-9.39553-22.80975-3.49178-32.69422,4.9485-8.28509,11.08272-15.69824,16.66768-23.5147,9.92261-13.88715,19.77976-27.8216,29.77719-41.65461q26.9247-37.25472,53.98661-74.41015c6.12557-8.431,12.32406-16.809,18.45922-25.2331,5.56263-7.63794,11.12745-15.27533,16.5691-22.99908.67578-.95917,2.33767-1.94275,1.42941-3.39636-.80966-1.29578-2.44867-.66669-3.71436-.6753-7.49554-.05127-14.99487.11408-22.48669-.06109-9.45526-.22107-18.92533.7279-28.36685-.94525-22.966-4.06971-31.02689-27.80207-20.27631-45.51288,7.64478-12.59424,16.4603-24.47412,24.64108-36.74756,14.89643-22.34851,29.66349-44.78339,44.59409-67.10895,3.20376-4.79046,6.99936-9.18872,9.276-14.56579q.50688-.06885,1.013-.13685.40106-.54506.80362-1.09176c7.35522-11.255,14.67954-22.53037,22.07471-33.75907,6.86191-10.41894,13.81292-20.77911,20.687-31.19009.87091-1.319,2.76694-2.63242,1.73321-4.30164-.95034-1.5346-3.07-.78323-4.67166-.78988-11.499-.04782-22.99951.07953-34.49722-.05173-15.39905-.17578-25.97211-8.00561-30.41641-22.59506a24.26284,24.26284,0,0,1,2.46267-20.21964q27.76242-45.60411,55.8284-91.02322,45.88629-74.28353,91.98508-148.43542c11.60449-18.59987,36.47037-18.60547,48.032-.00411Q636.65488,286.72855,707.93719,402.213c3.93677,6.36222,8.10584,12.68634,8.31275,20.5557.45679,17.38034-12.63812,30.62008-30.86731,30.95712-11.66187.21564-23.33106.02136-34.9967.06982-1.60279.00666-3.72211-.743-4.67505.78531-1.04023,1.66831.8537,2.98539,1.72711,4.30188q20.139,30.35541,40.31988,60.68314c.90424,1.36215,1.63245,2.84113,2.44123,4.26389q.40182.54656.80621,1.09683l1.01447.13846c5.28662,10.75064,13.16223,19.81652,19.5155,29.88635,9.36847,14.84894,19.53924,29.19043,29.30993,43.78717,9.77369,14.60126,19.5506,29.20141,29.18171,43.89673,6.23083,9.507,7.22015,23.71472-.06488,34.12939-6.85541,9.80042-16.71021,12.75208-27.59058,13.10382-14.14435.45728-28.3147.09351-42.47363.14112-1.42572.00482-3.40168-.75934-4.16907.69207-.90491,1.71143,1.03387,3.00806,1.921,4.222,8.89209,12.16821,18.04382,24.14764,26.87158,36.36163,8.53345,11.80683,16.66211,23.90582,25.1673,35.73358,11.41339,15.87207,23.04755,31.58527,34.53076,47.40747,8.85742,12.20441,17.62927,24.471,26.43726,36.71125,7.74176,10.75879,16.20153,21.02612,22.99786,32.431,4.01715,6.74133,3.43109,23.27179-3.73926,30.31012C824.39587,919.29681,818.52826,923.2738,811.00507,924.82764Z" transform="translate(-29 -157.51831)"/>
  <path class="cls-3" d="M389.98,525.06519c-2.27667,5.37707-6.07227,9.77533-9.276,14.56579-14.9306,22.32556-29.69766,44.76044-44.59409,67.10895-8.18078,12.27344-16.9963,24.15332-24.64108,36.74756-10.75058,17.71081-2.68964,41.44317,20.27631,45.51288,9.44152,1.67315,18.91159.72418,28.36685.94525,7.49182.17517,14.99115.00982,22.48669.06109,1.26569.00861,2.9047-.62048,3.71436.6753.90826,1.45361-.75363,2.43719-1.42941,3.39636-5.44165,7.72375-11.00647,15.36114-16.5691,22.99908-6.13516,8.42414-12.33365,16.80213-18.45922,25.2331q-27.01818,37.18707-53.98661,74.41015c-9.99743,13.833-19.85458,27.76746-29.77719,41.65461-5.585,7.81646-11.71918,15.22961-16.66768,23.5147-5.90375,9.88447-4.19644,24.37555,3.49178,32.69422a31.86286,31.86286,0,0,0,18.06808,10.24335q-49.58443.08193-99.16891.15185c-14.61551.0072-29.23109-.11639-43.84683-.18072-8.56561-2.79413-14.79844-7.60144-16.34644-17.25312-1.15664-7.21161,2.53419-12.51538,6.24137-17.71655,10.00478-14.03656,20.30187-27.86481,30.48969-41.77087,11.85643-16.18354,23.773-32.32343,35.55951-48.55774,6.52559-8.9881,12.84822-18.12378,19.23526-27.212.73835-1.05066,1.96167-2.20263,1.23131-3.537-.75737-1.3836-2.41337-.73529-3.66777-.74243-8.99759-.05127-17.99789.09766-26.99295-.06244-12.35959-.22-22.56155-10.0238-21.69919-20.54846.618-7.54248,5.24649-13.159,9.173-19.05426,15.17443-22.783,30.48817-45.47314,45.70829-68.22583.98011-1.46521,2.52541-2.78265,2.07688-4.89221,1.70514-.28735,2.38084-1.7334,3.19443-2.95062q12.49206-18.68949,24.90927-37.42871c.687-1.03827,2.2154-2.0622,1.35423-3.45844-.79155-1.28326-2.443-.64844-3.71011-.65814-6.6623-.0509-13.32592-.087-19.98768-.00946-8.93907.10406-16.45152-2.48468-20.90678-10.88147-4.178-7.87415-2.001-15.02191,2.39909-22.084q31.69879-50.87622,63.23682-101.85257c10.62439-17.11673,21.32237-34.18805,31.88643-51.34188,9.34595-15.17579,26.76248-15.2544,36.2254-.02851Q358.80767,474.78075,389.98,525.06519Z" transform="translate(-29 -157.51831)"/>
  <path class="cls-3" d="M811.00507,924.82764c7.52319-1.55384,13.3908-5.53083,18.91015-10.94873,7.17035-7.03833,7.75641-23.56879,3.73926-30.31012-6.79633-11.40491-15.2561-21.67224-22.99786-32.431-8.808-12.2403-17.57984-24.50684-26.43726-36.71125-11.48321-15.8222-23.11737-31.5354-34.53076-47.40747-8.50519-11.82776-16.63385-23.92675-25.1673-35.73358-8.82776-12.214-17.97949-24.19342-26.87158-36.36163-.88709-1.21393-2.82587-2.51056-1.921-4.222.76739-1.45141,2.74335-.68725,4.16907-.69207,14.15893-.04761,28.32928.31616,42.47363-.14112,10.88037-.35174,20.73517-3.3034,27.59058-13.10382,7.285-10.41467,6.29571-24.62237.06488-34.12939-9.63111-14.69532-19.408-29.29547-29.18171-43.89673-9.77069-14.59674-19.94146-28.93823-29.30993-43.78717-6.35327-10.06983-14.22888-19.13571-19.5155-29.88635,20.63427-33.22327,41.82189-66.12082,61.65264-99.81693,8.96045-15.22543,28.45368-15.40793,37.98847.45325,30.5368,50.79837,62.24426,100.8938,93.59283,151.20266,4.77069,7.65625,7.44544,15.24933,2.41559,23.804-4.26221,7.249-10.93579,9.88654-18.9118,9.97589-7.49469.08392-14.991.01172-22.48664.0293-1.95178.00458-4.1878-.07721-2.20275,2.89886q13.44369,20.15571,26.95715,40.26471c.416.61786,1.321.9065,1.99786,1.34882.32141,4.86468,4.19782,7.82965,6.574,11.4516,15.10571,23.0252,30.74426,45.7005,45.90753,68.68878,4.20453,6.37427,6.62866,13.3949,2.34338,21.09778-4.32171,7.76837-10.96039,11.32611-19.56292,11.48065-8.49506.15271-16.99549-.01166-25.49238.07745-1.74108.01831-4.12194-.976-5.10424.76428-1.002,1.775,1.029,3.28113,2.05664,4.70069,11.27411,15.57391,22.635,31.08508,33.88324,46.67767,15.90789,22.05182,31.70306,44.18518,47.64746,66.21057,2.33288,3.22248,4.82989,6.28266,6.86474,9.74964,6.46894,11.02179-.527,24.80694-12.3258,27.89428a11.89094,11.89094,0,0,0-1.77191.77948c-17.94086.06434-35.8819.18488-53.823.18018Q855.61243,924.967,811.00507,924.82764Z" transform="translate(-29 -157.51831)"/>
</svg>
